<svg xmlns="http://www.w3.org/2000/svg" viewBox="0 0 512 512"><defs><style>.cls-1{fill:#7cc8fb;}.cls-2{fill:#ba1919;}.cls-3{fill:#d6d4d4;}.cls-4{fill:#fff;}.cls-5{fill:#db1b1b;}.cls-6{fill:#b71a1a;}.cls-7{fill:none;stroke:#fff;stroke-linecap:round;stroke-miterlimit:10;stroke-width:5px;}.cls-8{fill:#32314b;}.cls-9{fill:#27273d;}.cls-10{fill:#a51919;}.cls-11{fill:#3586cb;}.cls-12{fill:#f6c752;}.cls-13{fill:#cd88f8;}.cls-14{fill:#b0d46c;}.cls-15{fill:#fc715a;}.cls-16{fill:#f7bb38;}.cls-17{fill:#e88032;}</style></defs><title>Circus</title><g id="BULINE"><circle class="cls-1" cx="256" cy="256" r="256"/></g><g id="Icons"><path class="cls-2" d="M158.63,462.28H104.37q-2.53-1.86-5-3.79A256.77,256.77,0,0,1,20.66,356.9L27,141.56l.16-5.46.47-16.17H148.63l.47,16.17,2,67.61.69,23.76.83,28.35.25,8.48h0l.25,8.57.06,2s0,0,0,0l.23,8.19s0,0,0,0Z"/><path class="cls-3" d="M126,119.93V462.28H104.37q-2.53-1.86-5-3.79V119.93Z"/><path class="cls-3" d="M76.85,119.93V438.87a256.37,256.37,0,0,1-26.66-30.61V119.93Z"/><path class="cls-4" d="M88.11,31.79v88.14H9.25Q53.79,86,88.11,31.79Z"/><path class="cls-5" d="M88.11,31.79c-10,30-24.42,59.28-42.22,88.14H9.25Q53.79,86,88.11,31.79Z"/><path class="cls-5" d="M88.11,31.79v88.14H167Q122.43,86,88.11,31.79Z"/><path class="cls-4" d="M88.11,31.79c10,30,24.41,59.28,42.21,88.14H167Q122.43,86,88.11,31.79Z"/><path class="cls-4" d="M9.25,119.93H45.91a0,0,0,0,1,0,0v0A16.17,16.17,0,0,1,29.74,136.1H25.42A16.17,16.17,0,0,1,9.25,119.93v0A0,0,0,0,1,9.25,119.93Z"/><path class="cls-5" d="M45.91,119.93H88.11a0,0,0,0,1,0,0v0A16.17,16.17,0,0,1,71.94,136.1H62.09a16.17,16.17,0,0,1-16.17-16.17v0A0,0,0,0,1,45.91,119.93Z"/><path class="cls-5" d="M146.47,119.93h4.32A16.17,16.17,0,0,1,167,136.1v0a0,0,0,0,1,0,0H130.3a0,0,0,0,1,0,0v0a16.17,16.17,0,0,1,16.17-16.17Z" transform="translate(297.26 256.03) rotate(-180)"/><path class="cls-4" d="M104.28,119.93h9.85A16.17,16.17,0,0,1,130.3,136.1v0a0,0,0,0,1,0,0H88.11a0,0,0,0,1,0,0v0a16.17,16.17,0,0,1,16.17-16.17Z" transform="translate(218.41 256.03) rotate(-180)"/><path class="cls-2" d="M491.34,356.9a256.73,256.73,0,0,1-78.7,101.59q-2.47,1.93-5,3.79H353.37l5.24-179.36h0l.22-7.65h0l.09-3,.23-7.95h0l.23-7.74.84-28.77.69-23.8h0l2-67.88.47-16.17H484.42l.47,16.17.16,5.46Z"/><path class="cls-3" d="M461.81,119.93V408.26a256.37,256.37,0,0,1-26.66,30.61V119.93Z"/><path class="cls-3" d="M412.64,119.93V458.49q-2.47,1.93-5,3.79H386V119.93Z"/><polygon class="cls-6" points="316.4 16.08 257.3 16.08 257.3 23.65 257.3 31.22 316.4 31.22 308.83 23.65 316.4 16.08"/><line class="cls-7" x1="255.88" y1="58.61" x2="255.88" y2="16.08"/><polygon class="cls-4" points="156.18 463.48 133.23 463.48 106.91 291.08 104.23 273.48 102.83 264.3 130.87 264.3 132.03 273.48 134.36 291.73 156.18 463.48"/><polygon class="cls-5" points="130.87 264.31 161.87 264.31 183.19 463.48 156.18 463.48 130.87 264.31"/><polygon class="cls-4" points="183.19 463.48 210.31 463.48 197.34 264.31 161.87 264.31 183.19 463.48"/><polygon class="cls-5" points="210.31 463.48 235.5 463.48 232.09 264.31 197.34 264.31 210.31 463.48"/><polygon class="cls-4" points="255.85 264.3 255.85 463.48 235.26 463.48 232.09 264.3 255.85 264.3"/><polygon class="cls-5" points="408.87 264.3 407.47 273.48 404.8 290.96 378.48 463.48 355.53 463.48 377.35 291.76 379.67 273.48 380.83 264.3 408.87 264.3"/><polygon class="cls-4" points="380.83 264.31 349.83 264.31 328.51 463.48 355.52 463.48 380.83 264.31"/><polygon class="cls-5" points="328.51 463.48 301.39 463.48 314.36 264.31 349.83 264.31 328.51 463.48"/><polygon class="cls-4" points="301.39 463.48 276.2 463.48 279.61 264.31 314.36 264.31 301.39 463.48"/><polygon class="cls-5" points="255.85 264.3 255.85 463.48 276.44 463.48 279.61 264.3 255.85 264.3"/><path class="cls-3" d="M118.41,264.31v3c0,11-4.88,20.46-11.54,23.55l-4-26.52Z"/><path class="cls-3" d="M118.42,264.3h38a0,0,0,0,1,0,0v8.53a19,19,0,0,1-19,19h0a19,19,0,0,1-19-19V264.3a0,0,0,0,1,0,0Z"/><path class="cls-2" d="M156.37,264.3h38a0,0,0,0,1,0,0v8.53a19,19,0,0,1-19,19h0a19,19,0,0,1-19-19V264.3A0,0,0,0,1,156.37,264.3Z"/><path class="cls-2" d="M232.33,264.3H279.8a0,0,0,0,1,0,0v5a22.46,22.46,0,0,1-22.46,22.46h-2.55a22.46,22.46,0,0,1-22.46-22.46v-5a0,0,0,0,1,0,0Z"/><path class="cls-3" d="M194.33,264.3c0,15.2,7.65,27.51,17.09,27.51h3.77c9.44,0,17.09-12.31,17.09-27.51Z"/><path class="cls-2" d="M407.47,264.31l-2.67,26.23c-6.47-3.27-11.13-12.45-11.13-23.27v-3Z"/><path class="cls-3" d="M374.69,264.3h0a19,19,0,0,1,19,19v8.53a0,0,0,0,1,0,0h-38a0,0,0,0,1,0,0v-8.53A19,19,0,0,1,374.69,264.3Z" transform="translate(749.38 556.12) rotate(-180)"/><path class="cls-2" d="M336.74,264.3h0a19,19,0,0,1,19,19v8.53a0,0,0,0,1,0,0h-38a0,0,0,0,1,0,0v-8.53A19,19,0,0,1,336.74,264.3Z" transform="translate(673.47 556.12) rotate(180)"/><path class="cls-3" d="M279.8,264.3c0,15.2,7.65,27.51,17.09,27.51h3.78c9.44,0,17.09-12.31,17.09-27.51Z"/><rect class="cls-2" x="189.8" y="141.22" width="132.49" height="27.11"/><path class="cls-4" d="M255.88,53.08v88.14H177Q221.57,107.29,255.88,53.08Z"/><path class="cls-5" d="M255.88,53.08c-9.95,30-24.41,59.28-42.21,88.14H177Q221.57,107.29,255.88,53.08Z"/><path class="cls-5" d="M255.88,53.08v88.14h78.86Q290.19,107.29,255.88,53.08Z"/><path class="cls-4" d="M255.88,53.08c9.95,30,24.41,59.28,42.22,88.14h36.64Q290.19,107.29,255.88,53.08Z"/><path class="cls-4" d="M177,141.22h36.66a0,0,0,0,1,0,0v0a16.17,16.17,0,0,1-16.17,16.17H193.2A16.17,16.17,0,0,1,177,141.22v0a0,0,0,0,1,0,0Z"/><path class="cls-5" d="M213.69,141.22h42.19a0,0,0,0,1,0,0v0a16.17,16.17,0,0,1-16.17,16.17h-9.85a16.17,16.17,0,0,1-16.17-16.17v0A0,0,0,0,1,213.69,141.22Z"/><path class="cls-5" d="M314.24,141.22h4.32a16.17,16.17,0,0,1,16.17,16.17v0a0,0,0,0,1,0,0H298.07a0,0,0,0,1,0,0v0A16.17,16.17,0,0,1,314.24,141.22Z" transform="translate(632.81 298.6) rotate(-180)"/><path class="cls-4" d="M272.05,141.22h9.85a16.17,16.17,0,0,1,16.17,16.17v0a0,0,0,0,1,0,0H255.88a0,0,0,0,1,0,0v0a16.17,16.17,0,0,1,16.17-16.17Z" transform="translate(553.95 298.6) rotate(-180)"/><path class="cls-4" d="M423.89,31.79v88.14H345Q389.58,86,423.89,31.79Z"/><path class="cls-5" d="M423.89,31.79c-9.95,30-24.41,59.28-42.21,88.14H345Q389.58,86,423.89,31.79Z"/><path class="cls-5" d="M423.89,31.79v88.14h78.86Q458.22,86,423.89,31.79Z"/><path class="cls-4" d="M423.89,31.79c9.95,30,24.42,59.28,42.22,88.14h36.64Q458.22,86,423.89,31.79Z"/><path class="cls-4" d="M345,119.93H381.7a0,0,0,0,1,0,0v0a16.17,16.17,0,0,1-16.17,16.17h-4.32A16.17,16.17,0,0,1,345,119.93v0A0,0,0,0,1,345,119.93Z"/><path class="cls-5" d="M381.7,119.93h42.19a0,0,0,0,1,0,0v0a16.17,16.17,0,0,1-16.17,16.17h-9.85a16.17,16.17,0,0,1-16.17-16.17v0A0,0,0,0,1,381.7,119.93Z"/><path class="cls-5" d="M482.26,119.93h4.32a16.17,16.17,0,0,1,16.17,16.17v0a0,0,0,0,1,0,0H466.09a0,0,0,0,1,0,0v0a16.17,16.17,0,0,1,16.17-16.17Z" transform="translate(968.83 256.03) rotate(-180)"/><path class="cls-4" d="M440.06,119.93h9.85a16.17,16.17,0,0,1,16.17,16.17v0a0,0,0,0,1,0,0H423.89a0,0,0,0,1,0,0v0a16.17,16.17,0,0,1,16.17-16.17Z" transform="translate(889.98 256.03) rotate(-180)"/><polygon class="cls-4" points="205.63 168.32 118.22 264.31 85.5 264.31 189.38 168.32 205.63 168.32"/><polygon class="cls-5" points="223.27 168.32 156.18 264.31 118.22 264.31 205.63 168.32 223.27 168.32"/><polygon class="cls-4" points="223.27 168.32 238.5 168.32 194.13 264.31 156.18 264.31 223.27 168.32"/><polygon class="cls-5" points="251.11 168.32 232.09 264.31 194.13 264.31 238.5 168.32 251.11 168.32"/><path class="cls-5" d="M85.5,264.31h32.72a0,0,0,0,1,0,0v2a16.36,16.36,0,0,1-16.36,16.36h0A16.36,16.36,0,0,1,85.5,266.28v-2A0,0,0,0,1,85.5,264.31Z"/><path class="cls-4" d="M118.22,264.31h38a0,0,0,0,1,0,0v.64a17.7,17.7,0,0,1-17.7,17.7h-2.55a17.7,17.7,0,0,1-17.7-17.7v-.64A0,0,0,0,1,118.22,264.31Z"/><path class="cls-5" d="M156.18,264.31h38a0,0,0,0,1,0,0v.64a17.7,17.7,0,0,1-17.7,17.7h-2.55a17.7,17.7,0,0,1-17.7-17.7v-.64A0,0,0,0,1,156.18,264.31Z"/><path class="cls-5" d="M232.14,264.31h47.47a0,0,0,0,1,0,0v0a18.34,18.34,0,0,1-18.34,18.34H250.47a18.34,18.34,0,0,1-18.34-18.34v0a0,0,0,0,1,0,0Z"/><path class="cls-4" d="M194.13,264.31c0,10.12,7.65,18.33,17.09,18.33H215c9.44,0,17.09-8.21,17.09-18.33Z"/><polygon class="cls-4" points="306.07 168.32 393.47 264.31 426.2 264.31 322.31 168.32 306.07 168.32"/><polygon class="cls-5" points="288.43 168.32 355.52 264.31 393.47 264.31 306.07 168.32 288.43 168.32"/><polygon class="cls-4" points="288.43 168.32 273.19 168.32 317.56 264.31 355.52 264.31 288.43 168.32"/><polygon class="cls-5" points="260.58 168.32 279.61 264.31 317.56 264.31 273.2 168.32 260.58 168.32"/><path class="cls-5" d="M409.84,264.31h0a16.36,16.36,0,0,1,16.36,16.36v2a0,0,0,0,1,0,0H393.47a0,0,0,0,1,0,0v-2A16.36,16.36,0,0,1,409.84,264.31Z" transform="translate(819.67 546.95) rotate(-180)"/><path class="cls-4" d="M373.22,264.31h2.55a17.7,17.7,0,0,1,17.7,17.7v.64a0,0,0,0,1,0,0h-38a0,0,0,0,1,0,0V282a17.7,17.7,0,0,1,17.7-17.7Z" transform="translate(748.99 546.95) rotate(180)"/><path class="cls-5" d="M335.27,264.31h2.55a17.7,17.7,0,0,1,17.7,17.7v.64a0,0,0,0,1,0,0h-38a0,0,0,0,1,0,0V282A17.7,17.7,0,0,1,335.27,264.31Z" transform="translate(673.08 546.95) rotate(180)"/><path class="cls-4" d="M279.61,264.31c0,10.12,7.65,18.33,17.09,18.33h3.77c9.44,0,17.09-8.21,17.09-18.33Z"/><polygon class="cls-4" points="279.61 264.31 232.09 264.31 251.11 168.32 260.58 168.32 279.61 264.31"/><polygon class="cls-8" points="255.87 311.08 255.85 311.82 255.85 311.08 203.21 463.48 251 463.48 255.85 463.48 306.07 463.48 255.87 311.08"/><polygon class="cls-9" points="267.52 347.91 227.65 463.32 202.69 463.32 255.32 310.93 255.32 311.66 255.34 310.93 267.52 347.91"/><polygon class="cls-10" points="255.85 311.82 166.4 463.48 222.62 463.48 255.85 311.82"/><polygon class="cls-10" points="256.66 311.82 346.11 463.48 289.88 463.48 256.66 311.82"/><path class="cls-6" d="M255.88,50.11h0a6,6,0,0,1,6,6v5.46a0,0,0,0,1,0,0H249.84a0,0,0,0,1,0,0V56.15A6,6,0,0,1,255.88,50.11Z"/><circle class="cls-11" cx="85.5" cy="264.31" r="8.65"/><circle class="cls-12" cx="118.22" cy="264.31" r="8.65"/><circle class="cls-13" cx="154.21" cy="264.31" r="8.65"/><circle class="cls-14" cx="194.33" cy="264.31" r="8.65"/><circle class="cls-15" cx="232.09" cy="264.31" r="8.65"/><circle class="cls-16" cx="279.61" cy="264.31" r="8.65"/><circle class="cls-14" cx="317.56" cy="264.31" r="8.65"/><circle class="cls-13" cx="355.53" cy="264.31" r="8.65"/><circle class="cls-12" cx="393.68" cy="264.31" r="8.65"/><circle class="cls-11" cx="426.2" cy="264.31" r="8.65"/><path class="cls-17" d="M407.63,462.28a256.07,256.07,0,0,1-303.26,0Z"/></g></svg>